<?xml version="1.0" encoding="utf-8"?>
<!-- Generator: Adobe Illustrator 21.0.1, SVG Export Plug-In . SVG Version: 6.00 Build 0)  -->
<svg version="1.1" id="Calque_1" xmlns="http://www.w3.org/2000/svg" xmlns:xlink="http://www.w3.org/1999/xlink" x="0px" y="0px"
	 viewBox="0 0 777.3 777.3" style="enable-background:new 0 0 777.3 777.3;" xml:space="preserve">
<style type="text/css">
	.st0{fill:#E77562;}
	.st1{fill:#FFFFFF;}
</style>
<rect class="st0" width="777.3" height="777.3"/>
<g>
	<path class="st1" d="M379.4,493.7c-9.9,0-19.8,0-29.8,0c-1.3,0-2.6,0-3.8,0.1c-0.9,0.1-1.5,0.6-1.6,1.5c-0.3,2.4-0.6,4.8-0.8,7.1
		c-0.5,5.3-0.8,10.5-1.3,15.8c-0.8,9.2-1.7,18.5-2.5,27.7c-0.5,5.6-0.9,11.2-1.3,16.7c-0.4,5.3-1,10.5-3.3,15.4
		c-5.1,10.9-13.5,17.7-25.4,19.8c-13.4,2.4-24.7-1.7-33.5-12c-4.9-5.8-7.5-12.6-7.8-20.2c-0.1-2.4,0-4.8,0.2-7.2
		c1.1-12.4,2.3-24.8,3.4-37.2c0.7-7.8,1.4-15.6,2-23.4c0.1-0.8,0.1-1.6,0.1-2.4c0-0.9-0.5-1.5-1.4-1.6c-1.3-0.1-2.6-0.1-3.8-0.1
		c-9.1,0-18.2,0-27.4,0c-3.5,0-7-0.2-10.5-0.4c-14.9-0.9-28.4-12.9-30.9-28.8c-1.6-10.2,0.5-19.4,6.8-27.6
		c7.1-9.3,16.8-13.4,28.4-13.5c13.1-0.1,26.2,0,39.4,0c1.3,0,2.6,0,3.8,0c1.7-0.1,2.2-0.6,2.3-2.4c0.3-3.5,0.7-7,1-10.5
		c1.1-12.9,2.1-25.8,3.2-38.7c0.4-4.9,1-9.9,1.5-14.8c0.3-2.8,0.1-3.1-2.6-3.2c-1.4,0-2.9,0-4.3,0c-14.2,0-28.5,0-42.7,0
		c-4,0-8-0.3-11.9-1.5c-14-4.3-22.3-13.7-24.8-28.2c-3-17.2,7.5-33.5,22.9-38.7c3.1-1,6.2-1.7,9.4-1.7c7.2,0,14.4-0.1,21.6-0.1
		c11.4,0,22.7,0,34.1,0c0.8,0,1.6,0,2.4,0c1.7-0.1,2.1-0.4,2.5-2.3c0.2-0.8,0.3-1.6,0.3-2.4c0.8-9.1,1.4-18.2,2.2-27.2
		c0.8-8.9,1.7-17.8,2.5-26.7c0.4-4.6,0.9-9.2,1.2-13.9c1-16.2,12.6-27.9,25.5-31.3c19.1-5,38.5,5.9,43.2,25
		c0.9,3.9,1.4,7.8,0.9,11.9c-0.7,5.2-0.9,10.5-1.4,15.8c-0.8,9.4-1.7,18.8-2.5,28.2c-0.6,7-1.2,14-1.7,21c-0.1,1.3,0.4,1.8,1.6,1.9
		c1,0.1,1.9,0.1,2.9,0.1c20.2,0,40.3,0,60.5,0c0.5,0,1,0,1.4,0c2.5,0,3.2,0,3.5-3.2c0.4-5.4,1-10.8,1.5-16.2
		c0.9-10.3,1.8-20.7,2.8-31c0.7-7.8,1.4-15.6,2-23.4c1.2-15.9,14.7-29,29.6-30.7c12.7-1.5,23.4,2.3,31.8,11.9c5,5.7,7.8,12.4,8,20.1
		c0.1,1.8,0.1,3.5-0.1,5.3c-0.5,6.7-1.2,13.4-1.7,20.1c-0.4,4.1-0.7,8.3-1.1,12.4c-0.9,10.7-1.9,21.3-2.8,32c0,0.5-0.1,1,0,1.4
		c0.1,0.7,0.4,1.3,1.1,1.3c1.3,0.1,2.6,0.1,3.8,0.1c11.2,0,22.4,0,33.6,0c4.5,0,8.9,0.4,13.2,2c16,5.7,25.4,22.1,22.4,39
		c-2.6,14.4-11.2,23.7-25.2,27.9c-3.7,1.1-7.5,1.3-11.4,1.3c-13,0-25.9,0-38.9,0c-4.6,0-4.9-0.8-5.4,4.9
		c-1.1,12.9-2.1,25.8-3.2,38.7c-0.7,8-1.4,15.9-2.1,23.9c-0.1,1.5,0.3,2,1.8,2.1c1.3,0.1,2.6,0,3.8,0c14.7,0,29.4,0,44.2,0
		c4.3,0,8.6,0.3,12.8,1.6c16.9,5.4,26.8,22.1,23.7,39.5c-2.7,14.9-11.7,24.1-26.2,28c-4,1.1-8.2,1.1-12.4,1.1c-16.2,0-32.3,0-48.5,0
		c-5.3,0-5.4,0-6,5.2c-0.5,4.1-0.8,8.3-1.2,12.4c-0.8,9.1-1.4,18.2-2.2,27.2c-0.9,10.2-1.5,20.4-2.9,30.6
		c-1.8,13.8-12,25.2-26.4,28.4c-11.9,2.7-22.6,0-31.7-8.2c-6.8-6.1-10.6-13.9-11.1-23.1c-0.1-1.8-0.1-3.5,0-5.3
		c0.5-6.7,1.1-13.4,1.7-20.1c0.4-4.1,0.7-8.3,1.1-12.4c0.9-10.7,1.9-21.3,2.8-32c0-0.3,0-0.6,0.1-1c0-1.4-0.5-2-2-2.1
		c-0.5,0-1,0-1.4,0c-10.4,0-20.8,0-31.2,0C379.4,493.5,379.4,493.6,379.4,493.7z"/>
	<path class="st0" d="M391.9,353.7c9.6,0,19.2,0,28.8,0c1.3,0,2.6,0,3.8,0c1.4,0.1,1.8,0.5,1.7,1.7c-0.2,3.3-0.5,6.7-0.8,10
		c-0.5,5.9-1.1,11.8-1.6,17.7c-0.8,9.4-1.7,18.8-2.5,28.2c-0.2,2.1-0.3,4.1-0.4,6.2c-0.1,1.4-0.3,2.9-0.5,4.3
		c-0.2,1.1-0.8,1.7-1.9,1.7c-0.8,0-1.6,0-2.4,0c-20.3,0-40.6,0-60.9,0c-4.4,0-4.5,0-4.2-4.6c0.4-5.9,1-11.8,1.6-17.7
		c0.4-4.1,0.8-8.3,1.1-12.4c0.8-9.1,1.5-18.2,2.2-27.2c0-0.3,0-0.6,0.1-1c1.4-8.2-0.8-7,7.8-7C373,353.7,382.5,353.7,391.9,353.7z"
		/>
</g>
</svg>
