<?xml version="1.0" encoding="utf-8"?>
<!-- Generator: Adobe Illustrator 21.0.1, SVG Export Plug-In . SVG Version: 6.00 Build 0)  -->
<svg version="1.1" id="Calque_1" xmlns="http://www.w3.org/2000/svg" xmlns:xlink="http://www.w3.org/1999/xlink" x="0px" y="0px"
	 viewBox="0 0 779.6 779.7" style="enable-background:new 0 0 779.6 779.7;" xml:space="preserve">
<style type="text/css">
	.st0{fill:#E77562;}
	.st1{fill:#FFFFFF;}
</style>
<g>
	<path class="st0" d="M0,777.2c0.1-0.9,0.8-1.3,1.4-1.8c30.5-25.4,49.9-57.9,60.2-95.9c3.5-13,5.7-26.2,7-39.6
		c1.2-13.1,1.1-26.2,0.6-39.3c-0.1-3.7-0.6-7.3-1-11c-0.3-2.4-1.1-4.6-2.4-6.7c-16.1-26.7-28.8-54.9-38-84.7
		c-5.4-17.4-9.6-35.1-12.3-53.2c-1.8-11.7-3.1-23.4-3.9-35.2c-1.1-14.5-1-29.1-0.5-43.6c0.5-12,1.7-23.9,3.4-35.8
		c3.7-26.7,10.2-52.7,19.4-78c13.8-38,33.2-73,58.1-104.9c12-15.4,25.2-29.8,39.4-43.2c21.6-20.4,45.3-38,71.1-52.9
		C234.2,33.1,268,19.6,303.6,11c13.2-3.2,26.5-5.7,40-7.5c12.4-1.6,24.8-2.7,37.3-3.1c6.2-0.2,12.5-0.6,18.7-0.4
		c9.1,0.3,18.2,0.7,27.3,1.4c9.6,0.7,19.1,1.9,28.6,3.3c13.4,2.1,26.7,4.9,39.8,8.5c27.9,7.5,54.6,18.1,80.1,31.6
		c24,12.7,46.3,27.9,67,45.3c29.7,25,55.1,53.8,76.1,86.5c21.7,33.7,37.8,70,48,108.8c4.3,16.1,7.5,32.4,9.6,48.9
		c1.5,11.7,2.5,23.5,2.9,35.3c0.3,7.4,0.7,14.7,0.3,22.1c-0.5,10.1-0.8,20.1-1.8,30.2c-2.4,25.2-7.2,49.9-14.6,74.2
		c-13.7,45.2-34.9,86.5-63.8,123.8c-33.3,42.9-73.9,77.4-121.7,103.2c-32.2,17.3-66.1,29.8-101.9,37.3c-14.6,3.1-29.2,5.2-44,6.7
		c-18,1.8-36.1,2.2-54.1,1.4c-17.7-0.8-35.3-2.8-52.8-6.1c-28.4-5.3-55.9-13.6-82.4-25.1c-1.3-0.6-2.6-1.2-4-1.6
		c-4.2-1.3-8.3-1.3-11.9,1.4c-10.3,7.7-21.9,12.5-33.9,16.6c-15,5.2-30.3,9-45.8,12.2c-13.6,2.8-27.3,5.2-41,7.3
		c-8.5,1.3-17.1,2.3-25.7,3.3c-8.9,1-17.8,1.8-26.7,2.5c-5.1,0.4-10.2,0.4-15.3,0.5c-8.2,0.3-16.3,0.1-24.4-0.3
		c-3.8-0.2-7.6-0.7-11.4-1.1C1.3,778.1,0.6,777.8,0,777.2z"/>
	<path class="st1" d="M380.2,495.8c-9.9,0-19.8,0-29.8,0c-1.3,0-2.6,0-3.8,0.1c-0.9,0.1-1.5,0.6-1.6,1.5c-0.3,2.4-0.6,4.8-0.8,7.1
		c-0.5,5.3-0.8,10.5-1.3,15.8c-0.8,9.2-1.7,18.5-2.5,27.7c-0.5,5.6-0.9,11.2-1.3,16.7c-0.4,5.3-1,10.5-3.3,15.4
		c-5.1,10.9-13.5,17.7-25.4,19.8c-13.4,2.4-24.7-1.7-33.5-12c-4.9-5.8-7.5-12.6-7.8-20.2c-0.1-2.4,0-4.8,0.2-7.2
		c1.1-12.4,2.3-24.8,3.4-37.2c0.7-7.8,1.4-15.6,2-23.4c0.1-0.8,0.1-1.6,0.1-2.4c0-0.9-0.5-1.5-1.4-1.6c-1.3-0.1-2.6-0.1-3.8-0.1
		c-9.1,0-18.2,0-27.4,0c-3.5,0-7-0.2-10.5-0.4c-14.9-0.9-28.4-12.9-30.9-28.8c-1.6-10.2,0.5-19.4,6.8-27.6
		c7.1-9.3,16.8-13.4,28.4-13.5c13.1-0.1,26.2,0,39.4,0c1.3,0,2.6,0,3.8,0c1.7-0.1,2.2-0.6,2.3-2.4c0.3-3.5,0.7-7,1-10.5
		c1.1-12.9,2.1-25.8,3.2-38.7c0.4-4.9,1-9.9,1.5-14.8c0.3-2.8,0.1-3.1-2.6-3.2c-1.4,0-2.9,0-4.3,0c-14.2,0-28.5,0-42.7,0
		c-4,0-8-0.3-11.9-1.5c-14-4.3-22.3-13.7-24.8-28.2c-3-17.2,7.5-33.5,22.9-38.7c3.1-1,6.2-1.7,9.4-1.7c7.2,0,14.4-0.1,21.6-0.1
		c11.4,0,22.7,0,34.1,0c0.8,0,1.6,0,2.4,0c1.7-0.1,2.1-0.4,2.5-2.3c0.2-0.8,0.3-1.6,0.3-2.4c0.8-9.1,1.4-18.2,2.2-27.2
		c0.8-8.9,1.7-17.8,2.5-26.7c0.4-4.6,0.9-9.2,1.2-13.9c1-16.2,12.6-27.9,25.5-31.3c19.1-5,38.5,5.9,43.2,25
		c0.9,3.9,1.4,7.8,0.9,11.9c-0.7,5.2-0.9,10.5-1.4,15.8c-0.8,9.4-1.7,18.8-2.5,28.2c-0.6,7-1.2,14-1.7,21c-0.1,1.3,0.4,1.8,1.6,1.9
		c1,0.1,1.9,0.1,2.9,0.1c20.2,0,40.3,0,60.5,0c0.5,0,1,0,1.4,0c2.5,0,3.2,0,3.5-3.2c0.4-5.4,1-10.8,1.5-16.2
		c0.9-10.3,1.8-20.7,2.8-31c0.7-7.8,1.4-15.6,2-23.4c1.2-15.9,14.7-29,29.6-30.7c12.7-1.5,23.4,2.3,31.8,11.9c5,5.7,7.8,12.4,8,20.1
		c0.1,1.8,0.1,3.5-0.1,5.3c-0.5,6.7-1.2,13.4-1.7,20.1c-0.4,4.1-0.7,8.3-1.1,12.4c-0.9,10.7-1.9,21.3-2.8,32c0,0.5-0.1,1,0,1.4
		c0.1,0.7,0.4,1.3,1.1,1.3c1.3,0.1,2.6,0.1,3.8,0.1c11.2,0,22.4,0,33.6,0c4.5,0,8.9,0.4,13.2,2c16,5.7,25.4,22.1,22.4,39
		c-2.6,14.4-11.2,23.7-25.2,27.9c-3.7,1.1-7.5,1.3-11.4,1.3c-13,0-25.9,0-38.9,0c-4.6,0-4.9-0.8-5.4,4.9
		c-1.1,12.9-2.1,25.8-3.2,38.7c-0.7,8-1.4,15.9-2.1,23.9c-0.1,1.5,0.3,2,1.8,2.1c1.3,0.1,2.6,0,3.8,0c14.7,0,29.4,0,44.2,0
		c4.3,0,8.6,0.3,12.8,1.6c16.9,5.4,26.8,22.1,23.7,39.5c-2.7,14.9-11.7,24.1-26.2,28c-4,1.1-8.2,1.1-12.4,1.1c-16.2,0-32.3,0-48.5,0
		c-5.3,0-5.4,0-6,5.2c-0.5,4.1-0.8,8.3-1.2,12.4c-0.8,9.1-1.4,18.2-2.2,27.2c-0.9,10.2-1.5,20.4-2.9,30.6
		c-1.8,13.8-12,25.2-26.4,28.4c-11.9,2.7-22.6,0-31.7-8.2c-6.8-6.1-10.6-13.9-11.1-23.1c-0.1-1.8-0.1-3.5,0-5.3
		c0.5-6.7,1.1-13.4,1.7-20.1c0.4-4.1,0.7-8.3,1.1-12.4c0.9-10.7,1.9-21.3,2.8-32c0-0.3,0-0.6,0.1-1c0-1.4-0.5-2-2-2.1
		c-0.5,0-1,0-1.4,0c-10.4,0-20.8,0-31.2,0C380.2,495.6,380.2,495.7,380.2,495.8z"/>
	<path class="st0" d="M392.7,355.8c9.6,0,19.2,0,28.8,0c1.3,0,2.6,0,3.8,0c1.4,0.1,1.8,0.5,1.7,1.7c-0.2,3.3-0.5,6.7-0.8,10
		c-0.5,5.9-1.1,11.8-1.6,17.7c-0.8,9.4-1.7,18.8-2.5,28.2c-0.2,2.1-0.3,4.1-0.4,6.2c-0.1,1.4-0.3,2.9-0.5,4.3
		c-0.2,1.1-0.8,1.7-1.9,1.7c-0.8,0-1.6,0-2.4,0c-20.3,0-40.6,0-60.9,0c-4.4,0-4.5,0-4.2-4.6c0.4-5.9,1-11.8,1.6-17.7
		c0.4-4.1,0.8-8.3,1.1-12.4c0.8-9.1,1.5-18.2,2.2-27.2c0-0.3,0-0.6,0.1-1c1.4-8.2-0.8-7,7.8-7C373.8,355.8,383.3,355.8,392.7,355.8z
		"/>
</g>
</svg>
