<?xml version="1.0" encoding="iso-8859-1"?>
<!-- Generator: Adobe Illustrator 16.0.0, SVG Export Plug-In . SVG Version: 6.00 Build 0)  -->
<!DOCTYPE svg PUBLIC "-//W3C//DTD SVG 1.1//EN" "http://www.w3.org/Graphics/SVG/1.1/DTD/svg11.dtd">
<svg xmlns="http://www.w3.org/2000/svg" xmlns:xlink="http://www.w3.org/1999/xlink" version="1.1" id="Capa_1" x="0px" y="0px" width="512px" height="512px" viewBox="0 0 454.887 454.886" style="enable-background:new 0 0 454.887 454.886;" xml:space="preserve">
<g>
	<path d="M227.452,454.886c-117.055,0-212.28-95.241-212.28-212.277c0-60.534,25.956-118.343,71.241-158.62   c12.51-11.136,31.671-10.011,42.804,2.487c11.138,12.499,10.013,31.69-2.501,42.825c-32.338,28.784-50.892,70.069-50.892,113.308   c0,83.634,68.025,151.629,151.629,151.629c83.615,0,151.609-67.995,151.609-151.629c0-43.238-18.532-84.523-50.814-113.308   c-12.555-11.135-13.685-30.266-2.544-42.825c11.126-12.498,30.322-13.623,42.82-2.487c45.252,40.277,71.191,98.086,71.191,158.62   C439.715,359.645,344.479,454.886,227.452,454.886z M257.765,181.956V30.327C257.765,13.565,244.202,0,227.452,0   c-16.746,0-30.327,13.565-30.327,30.327v151.629c0,16.764,13.577,30.327,30.327,30.327   C244.202,212.282,257.765,198.72,257.765,181.956z" fill="#ff5c7a"/>
</g>
<g>
</g>
<g>
</g>
<g>
</g>
<g>
</g>
<g>
</g>
<g>
</g>
<g>
</g>
<g>
</g>
<g>
</g>
<g>
</g>
<g>
</g>
<g>
</g>
<g>
</g>
<g>
</g>
<g>
</g>
</svg>
